v 0 1 0
v 0.0871557 0.996195 0
v 0.173648 0.984808 0
v 0.258819 0.965926 0
v 0.34202 0.939693 0
v 0.422618 0.906308 0
v 0.5 0.866025 0
v 0.573576 0.819152 0
v 0.642788 0.766044 0
v 0.707107 0.707107 0
v 0.766044 0.642788 0
v 0.819152 0.573576 0
v 0.866025 0.5 0
v 0.906308 0.422618 0
v 0.939693 0.34202 0
v 0.965926 0.258819 0
v 0.984808 0.173648 0
v 0.996195 0.0871557 0
v 1 6.12303e-017 0
v 0.996195 -0.0871557 0
v 0.984808 -0.173648 0
v 0.965926 -0.258819 0
v 0.939693 -0.34202 0
v 0.906308 -0.422618 0
v 0.866025 -0.5 0
v 0.819152 -0.573576 0
v 0.766044 -0.642788 0
v 0.707107 -0.707107 0
v 0.642788 -0.766044 0
v 0.573576 -0.819152 0
v 0.5 -0.866025 0
v 0.422618 -0.906308 0
v 0.34202 -0.939693 0
v 0.258819 -0.965926 0
v 0.173648 -0.984808 0
v 0.0871557 -0.996195 0
v 1.22461e-016 -1 0
v -0.0871557 -0.996195 0
v -0.173648 -0.984808 0
v -0.258819 -0.965926 0
v -0.34202 -0.939693 0
v -0.422618 -0.906308 0
v -0.5 -0.866025 0
v -0.573576 -0.819152 0
v -0.642788 -0.766044 0
v -0.707107 -0.707107 0
v -0.766044 -0.642788 0
v -0.819152 -0.573576 0
v -0.866025 -0.5 0
v -0.906308 -0.422618 0
v -0.939693 -0.34202 0
v -0.965926 -0.258819 0
v -0.984808 -0.173648 0
v -0.996195 -0.0871557 0
v -1 -1.83691e-016 0
v -0.996195 0.0871557 0
v -0.984808 0.173648 0
v -0.965926 0.258819 0
v -0.939693 0.34202 0
v -0.906308 0.422618 0
v -0.866025 0.5 0
v -0.819152 0.573576 0
v -0.766044 0.642788 0
v -0.707107 0.707107 0
v -0.642788 0.766044 0
v -0.573576 0.819152 0
v -0.5 0.866025 0
v -0.422618 0.906308 0
v -0.34202 0.939693 0
v -0.258819 0.965926 0
v -0.173648 0.984808 0
v -0.0871557 0.996195 0
v 0 1 2
v 0.0871557 0.996195 2
v 0.173648 0.984808 2
v 0.258819 0.965926 2
v 0.34202 0.939693 2
v 0.422618 0.906308 2
v 0.5 0.866025 2
v 0.573576 0.819152 2
v 0.642788 0.766044 2
v 0.707107 0.707107 2
v 0.766044 0.642788 2
v 0.819152 0.573576 2
v 0.866025 0.5 2
v 0.906308 0.422618 2
v 0.939693 0.34202 2
v 0.965926 0.258819 2
v 0.984808 0.173648 2
v 0.996195 0.0871557 2
v 1 6.12303e-017 2
v 0.996195 -0.0871557 2
v 0.984808 -0.173648 2
v 0.965926 -0.258819 2
v 0.939693 -0.34202 2
v 0.906308 -0.422618 2
v 0.866025 -0.5 2
v 0.819152 -0.573576 2
v 0.766044 -0.642788 2
v 0.707107 -0.707107 2
v 0.642788 -0.766044 2
v 0.573576 -0.819152 2
v 0.5 -0.866025 2
v 0.422618 -0.906308 2
v 0.34202 -0.939693 2
v 0.258819 -0.965926 2
v 0.173648 -0.984808 2
v 0.0871557 -0.996195 2
v 1.22461e-016 -1 2
v -0.0871557 -0.996195 2
v -0.173648 -0.984808 2
v -0.258819 -0.965926 2
v -0.34202 -0.939693 2
v -0.422618 -0.906308 2
v -0.5 -0.866025 2
v -0.573576 -0.819152 2
v -0.642788 -0.766044 2
v -0.707107 -0.707107 2
v -0.766044 -0.642788 2
v -0.819152 -0.573576 2
v -0.866025 -0.5 2
v -0.906308 -0.422618 2
v -0.939693 -0.34202 2
v -0.965926 -0.258819 2
v -0.984808 -0.173648 2
v -0.996195 -0.0871557 2
v -1 -1.83691e-016 2
v -0.996195 0.0871557 2
v -0.984808 0.173648 2
v -0.965926 0.258819 2
v -0.939693 0.34202 2
v -0.906308 0.422618 2
v -0.866025 0.5 2
v -0.819152 0.573576 2
v -0.766044 0.642788 2
v -0.707107 0.707107 2
v -0.642788 0.766044 2
v -0.573576 0.819152 2
v -0.5 0.866025 2
v -0.422618 0.906308 2
v -0.34202 0.939693 2
v -0.258819 0.965926 2
v -0.173648 0.984808 2
v -0.0871557 0.996195 2
vn 0 1 0
vn 0.0871557 0.996195 0
vn 0.173648 0.984808 0
vn 0.258819 0.965926 0
vn 0.34202 0.939693 0
vn 0.422618 0.906308 0
vn 0.5 0.866025 0
vn 0.573576 0.819152 0
vn 0.642788 0.766044 0
vn 0.707107 0.707107 0
vn 0.766044 0.642788 0
vn 0.819152 0.573576 0
vn 0.866025 0.5 0
vn 0.906308 0.422618 0
vn 0.939693 0.34202 0
vn 0.965926 0.258819 0
vn 0.984808 0.173648 0
vn 0.996195 0.0871557 0
vn 1 6.12303e-017 0
vn 0.996195 -0.0871557 0
vn 0.984808 -0.173648 0
vn 0.965926 -0.258819 0
vn 0.939693 -0.34202 0
vn 0.906308 -0.422618 0
vn 0.866025 -0.5 0
vn 0.819152 -0.573576 0
vn 0.766044 -0.642788 0
vn 0.707107 -0.707107 0
vn 0.642788 -0.766044 0
vn 0.573576 -0.819152 0
vn 0.5 -0.866025 0
vn 0.422618 -0.906308 0
vn 0.34202 -0.939693 0
vn 0.258819 -0.965926 0
vn 0.173648 -0.984808 0
vn 0.0871557 -0.996195 0
vn 1.22461e-016 -1 0
vn -0.0871557 -0.996195 0
vn -0.173648 -0.984808 0
vn -0.258819 -0.965926 0
vn -0.34202 -0.939693 0
vn -0.422618 -0.906308 0
vn -0.5 -0.866025 0
vn -0.573576 -0.819152 0
vn -0.642788 -0.766044 0
vn -0.707107 -0.707107 0
vn -0.766044 -0.642788 0
vn -0.819152 -0.573576 0
vn -0.866025 -0.5 0
vn -0.906308 -0.422618 0
vn -0.939693 -0.34202 0
vn -0.965926 -0.258819 0
vn -0.984808 -0.173648 0
vn -0.996195 -0.0871557 0
vn -1 -1.83691e-016 0
vn -0.996195 0.0871557 0
vn -0.984808 0.173648 0
vn -0.965926 0.258819 0
vn -0.939693 0.34202 0
vn -0.906308 0.422618 0
vn -0.866025 0.5 0
vn -0.819152 0.573576 0
vn -0.766044 0.642788 0
vn -0.707107 0.707107 0
vn -0.642788 0.766044 0
vn -0.573576 0.819152 0
vn -0.5 0.866025 0
vn -0.422618 0.906308 0
vn -0.34202 0.939693 0
vn -0.258819 0.965926 0
vn -0.173648 0.984808 0
vn -0.0871557 0.996195 0
f 1//1 73//1 2//2
f 2//2 74//2 3//3
f 3//3 75//3 4//4
f 4//4 76//4 5//5
f 5//5 77//5 6//6
f 6//6 78//6 7//7
f 7//7 79//7 8//8
f 8//8 80//8 9//9
f 9//9 81//9 10//10
f 10//10 82//10 11//11
f 11//11 83//11 12//12
f 12//12 84//12 13//13
f 13//13 85//13 14//14
f 14//14 86//14 15//15
f 15//15 87//15 16//16
f 16//16 88//16 17//17
f 17//17 89//17 18//18
f 18//18 90//18 19//19
f 19//19 91//19 20//20
f 20//20 92//20 21//21
f 21//21 93//21 22//22
f 22//22 94//22 23//23
f 23//23 95//23 24//24
f 24//24 96//24 25//25
f 25//25 97//25 26//26
f 26//26 98//26 27//27
f 27//27 99//27 28//28
f 28//28 100//28 29//29
f 29//29 101//29 30//30
f 30//30 102//30 31//31
f 31//31 103//31 32//32
f 32//32 104//32 33//33
f 33//33 105//33 34//34
f 34//34 106//34 35//35
f 35//35 107//35 36//36
f 36//36 108//36 37//37
f 37//37 109//37 38//38
f 38//38 110//38 39//39
f 39//39 111//39 40//40
f 40//40 112//40 41//41
f 41//41 113//41 42//42
f 42//42 114//42 43//43
f 43//43 115//43 44//44
f 44//44 116//44 45//45
f 45//45 117//45 46//46
f 46//46 118//46 47//47
f 47//47 119//47 48//48
f 48//48 120//48 49//49
f 49//49 121//49 50//50
f 50//50 122//50 51//51
f 51//51 123//51 52//52
f 52//52 124//52 53//53
f 53//53 125//53 54//54
f 54//54 126//54 55//55
f 55//55 127//55 56//56
f 56//56 128//56 57//57
f 57//57 129//57 58//58
f 58//58 130//58 59//59
f 59//59 131//59 60//60
f 60//60 132//60 61//61
f 61//61 133//61 62//62
f 62//62 134//62 63//63
f 63//63 135//63 64//64
f 64//64 136//64 65//65
f 65//65 137//65 66//66
f 66//66 138//66 67//67
f 67//67 139//67 68//68
f 68//68 140//68 69//69
f 69//69 141//69 70//70
f 70//70 142//70 71//71
f 71//71 143//71 72//72
f 72//72 144/72 1//1
f 73//1 74//2 2//2
f 74//2 75//3 3//3
f 75//3 76//4 4//4
f 76//4 77//5 5//5
f 77//5 78//6 6//6
f 78//6 79//7 7//7
f 79//7 80//8 8//8
f 80//8 81//9 9//9
f 81//9 82//10 10//10
f 82//10 83//11 11//11
f 83//11 84//12 12//12
f 84//12 85//13 13//13
f 85//13 86//14 14//14
f 86//14 87//15 15//15
f 87//15 88//16 16//16
f 88//16 89//17 17//17
f 89//17 90//18 18//18
f 90//18 91//19 19//19
f 91//19 92//20 20//20
f 92//20 93//21 21//21
f 93//21 94//22 22//22
f 94//22 95//23 23//23
f 95//23 96//24 24//24
f 96//24 97//25 25//25
f 97//25 98//26 26//26
f 98//26 99//27 27//27
f 99//27 100//28 28//28
f 100//28 101//29 29//29
f 101//29 102//30 30//30
f 102//30 103//31 31//31
f 103//31 104//32 32//32
f 104//32 105//33 33//33
f 105//33 106//34 34//34
f 106//34 107//35 35//35
f 107//35 108//36 36//36
f 108//36 109//37 37//37
f 109//37 110//38 38//38
f 110//38 111//39 39//39
f 111//39 112//40 40//40
f 112//40 113//41 41//41
f 113//41 114//42 42//42
f 114//42 115//43 43//43
f 115//43 116//44 44//44
f 116//44 117//45 45//45
f 117//45 118//46 46//46
f 118//46 119//47 47//47
f 119//47 120//48 48//48
f 120//48 121//49 49//49
f 121//49 122//50 50//50
f 122//50 123//51 51//51
f 123//51 124//52 52//52
f 124//52 125//53 53//53
f 125//53 126//54 54//54
f 126//54 127//55 55//55
f 127//55 128//56 56//56
f 128//56 129//57 57//57
f 129//57 130//58 58//58
f 130//58 131//59 59//59
f 131//59 132//60 60//60
f 132//60 133//61 61//61
f 133//61 134//62 62//62
f 134//62 135//63 63//63
f 135//63 136//64 64//64
f 136//64 137//65 65//65
f 137//65 138//66 66//66
f 138//66 139//67 67//67
f 139//67 140//68 68//68
f 140//68 141//69 69//69
f 141//69 142//70 70//70
f 142//70 143//71 71//71
f 143//71 144//72 72//72
f 144//72 73//1 1//1
vn 0 0 -1
vn 0 0 -1
f 1//73 2//73 3//73
f 1//73 3//73 4//73
f 1//73 4//73 5//73
f 1//73 5//73 6//73
f 1//73 6//73 7//73
f 1//73 7//73 8//73
f 1//73 8//73 9//73
f 1//73 9//73 10//73
f 1//73 10//73 11//73
f 1//73 11//73 12//73
f 1//73 12//73 13//73
f 1//73 13//73 14//73
f 1//73 14//73 15//73
f 1//73 15//73 16//73
f 1//73 16//73 17//73
f 1//73 17//73 18//73
f 1//73 18//73 19//73
f 1//73 19//73 20//73
f 1//73 20//73 21//73
f 1//73 21//73 22//73
f 1//73 22//73 23//73
f 1//73 23//73 24//73
f 1//73 24//73 25//73
f 1//73 25//73 26//73
f 1//73 26//73 27//73
f 1//73 27//73 28//73
f 1//73 28//73 29//73
f 1//73 29//73 30//73
f 1//73 30//73 31//73
f 1//73 31//73 32//73
f 1//73 32//73 33//73
f 1//73 33//73 34//73
f 1//73 34//73 35//73
f 1//73 35//73 36//73
f 1//73 36//73 37//73
f 1//73 37//73 38//73
f 1//73 38//73 39//73
f 1//73 39//73 40//73
f 1//73 40//73 41//73
f 1//73 41//73 42//73
f 1//73 42//73 43//73
f 1//73 43//73 44//73
f 1//73 44//73 45//73
f 1//73 45//73 46//73
f 1//73 46//73 47//73
f 1//73 47//73 48//73
f 1//73 48//73 49//73
f 1//73 49//73 50//73
f 1//73 50//73 51//73
f 1//73 51//73 52//73
f 1//73 52//73 53//73
f 1//73 53//73 54//73
f 1//73 54//73 55//73
f 1//73 55//73 56//73
f 1//73 56//73 57//73
f 1//73 57//73 58//73
f 1//73 58//73 59//73
f 1//73 59//73 60//73
f 1//73 60//73 61//73
f 1//73 61//73 62//73
f 1//73 62//73 63//73
f 1//73 63//73 64//73
f 1//73 64//73 65//73
f 1//73 65//73 66//73
f 1//73 66//73 67//73
f 1//73 67//73 68//73
f 1//73 68//73 69//73
f 1//73 69//73 70//73
f 1//73 70//73 71//73
f 1//73 71//73 72//73
f 73//74 74//74 75//74
f 73//74 75//74 76//74
f 73//74 76//74 77//74
f 73//74 77//74 78//74
f 73//74 78//74 79//74
f 73//74 79//74 80//74
f 73//74 80//74 81//74
f 73//74 81//74 82//74
f 73//74 82//74 83//74
f 73//74 83//74 84//74
f 73//74 84//74 85//74
f 73//74 85//74 86//74
f 73//74 86//74 87//74
f 73//74 87//74 88//74
f 73//74 88//74 89//74
f 73//74 89//74 90//74
f 73//74 90//74 91//74
f 73//74 91//74 92//74
f 73//74 92//74 93//74
f 73//74 93//74 94//74
f 73//74 94//74 95//74
f 73//74 95//74 96//74
f 73//74 96//74 97//74
f 73//74 97//74 98//74
f 73//74 98//74 99//74
f 73//74 99//74 100//74
f 73//74 100//74 101//74
f 73//74 101//74 102//74
f 73//74 102//74 103//74
f 73//74 103//74 104//74
f 73//74 104//74 105//74
f 73//74 105//74 106//74
f 73//74 106//74 107//74
f 73//74 107//74 108//74
f 73//74 108//74 109//74
f 73//74 109//74 110//74
f 73//74 110//74 111//74
f 73//74 111//74 112//74
f 73//74 112//74 113//74
f 73//74 113//74 114//74
f 73//74 114//74 115//74
f 73//74 115//74 116//74
f 73//74 116//74 117//74
f 73//74 117//74 118//74
f 73//74 118//74 119//74
f 73//74 119//74 120//74
f 73//74 120//74 121//74
f 73//74 121//74 122//74
f 73//74 122//74 123//74
f 73//74 123//74 124//74
f 73//74 124//74 125//74
f 73//74 125//74 126//74
f 73//74 126//74 127//74
f 73//74 127//74 128//74
f 73//74 128//74 129//74
f 73//74 129//74 130//74
f 73//74 130//74 131//74
f 73//74 131//74 132//74
f 73//74 132//74 133//74
f 73//74 133//74 134//74
f 73//74 134//74 135//74
f 73//74 135//74 136//74
f 73//74 136//74 137//74
f 73//74 137//74 138//74
f 73//74 138//74 139//74
f 73//74 139//74 140//74
f 73//74 140//74 141//74
f 73//74 141//74 142//74
f 73//74 142//74 143//74
f 73//74 143//74 144//74
